<svg width="200" height="150" viewBox="0 0 604 450" fill="none" xmlns="http://www.w3.org/2000/svg">
<path d="M170.425 269.653H-50L175.574 279.244L170.425 269.653Z" fill="white"/>
<path d="M180.21 307.587H-12.9214L185.358 317.178L180.21 307.587Z" fill="white"/>
<path d="M193.599 342.903H25.7058L198.752 352.499L193.599 342.903Z" fill="white"/>
<path d="M535.539 402.833C548.025 402.833 558.146 392.672 558.146 380.137C558.146 367.602 548.025 357.44 535.539 357.44C523.053 357.44 512.931 367.602 512.931 380.137C512.931 392.672 523.053 402.833 535.539 402.833Z" fill="#1C3A57"/>
<path d="M544.024 333.329C544.024 333.329 544.024 333.707 544.024 334.416C544.024 335.125 544.001 336.166 543.942 337.489C543.883 338.811 543.843 340.412 543.73 342.248C543.616 344.085 543.521 346.153 543.345 348.403C543.168 350.653 543.005 353.094 542.77 355.676C542.534 358.258 542.276 360.963 541.973 363.768C541.669 366.572 541.348 369.463 540.977 372.404C540.605 375.345 540.211 378.314 539.808 381.296C539.405 384.278 538.962 387.246 538.5 390.169C538.038 393.092 537.594 395.965 537.105 398.742C536.616 401.52 536.145 404.197 535.665 406.743C535.185 409.288 534.696 411.684 534.239 413.893C533.782 416.103 533.333 418.13 532.94 419.921C532.546 421.712 532.161 423.276 531.853 424.558C531.545 425.839 531.269 426.83 531.097 427.535L530.811 428.585L527.828 428.167C527.828 428.167 527.828 427.79 527.828 427.08C527.828 426.371 527.855 425.33 527.914 424.012C527.973 422.694 528.013 421.085 528.131 419.253C528.249 417.421 528.339 415.348 528.52 413.093C528.701 410.839 528.86 408.402 529.095 405.82C529.331 403.238 529.589 400.529 529.892 397.729C530.196 394.929 530.522 392.033 530.884 389.092C531.246 386.151 531.64 383.182 532.043 380.196C532.446 377.209 532.885 374.245 533.343 371.323C533.8 368.4 534.248 365.527 534.737 362.745C535.226 359.963 535.697 357.29 536.172 354.744C536.648 352.199 537.141 349.808 537.599 347.598C538.056 345.389 538.504 343.362 538.903 341.566C539.301 339.771 539.686 338.216 539.994 336.934C540.302 335.652 540.578 334.661 540.755 333.957L541.04 332.907L544.024 333.329Z" fill="#1C3A57"/>
<path d="M571.182 348.171L570.512 349.026C570.059 349.571 569.43 350.389 568.578 351.408C567.727 352.426 566.722 353.681 565.518 355.044C564.313 356.408 562.973 358.008 561.443 359.681C559.912 361.354 558.318 363.19 556.566 365.086C554.814 366.981 552.944 368.968 551.01 370.995C549.077 373.023 547.049 375.123 544.97 377.218C542.892 379.314 540.768 381.437 538.631 383.546C536.494 385.655 534.339 387.737 532.197 389.769C530.055 391.801 527.946 393.797 525.858 395.679C523.771 397.56 521.783 399.415 519.85 401.133C517.916 402.852 516.078 404.447 514.371 405.92C512.664 407.393 511.084 408.725 509.676 409.898C508.267 411.07 507.018 412.07 505.99 412.898C504.962 413.725 504.138 414.357 503.586 414.793L502.721 415.452L500.611 413.289C500.611 413.289 500.846 412.993 501.281 412.434C501.716 411.875 502.368 411.07 503.219 410.057C504.07 409.043 505.08 407.784 506.284 406.42C507.489 405.056 508.829 403.456 510.359 401.783C511.89 400.111 513.479 398.274 515.236 396.383C516.993 394.492 518.858 392.497 520.787 390.474C522.716 388.451 524.749 386.346 526.827 384.246C528.905 382.146 531.024 380.028 533.166 377.914C535.308 375.8 537.454 373.718 539.596 371.686C541.737 369.654 543.852 367.659 545.935 365.749C548.017 363.84 550.01 362.013 551.939 360.295C553.867 358.576 555.71 356.976 557.417 355.508C559.124 354.04 560.705 352.703 562.117 351.535C563.53 350.367 564.775 349.362 565.803 348.535C566.831 347.707 567.659 347.08 568.216 346.644L569.081 345.985L571.182 348.171Z" fill="#1C3A57"/>
<path d="M583.484 374.909L582.443 375.214C581.764 375.396 580.767 375.696 579.491 376.018C578.214 376.341 576.67 376.759 574.89 377.177C573.111 377.596 571.105 378.087 568.904 378.578C566.704 379.068 564.327 379.6 561.805 380.114C559.283 380.628 556.616 381.155 553.858 381.669C551.101 382.182 548.244 382.705 545.337 383.191C542.43 383.678 539.473 384.16 536.517 384.628C533.56 385.096 530.594 385.537 527.674 385.919C524.753 386.301 521.878 386.701 519.071 387.042C516.263 387.383 513.583 387.687 511.025 387.951C508.467 388.214 506.044 388.437 503.78 388.637C501.516 388.837 499.479 388.992 497.654 389.119C495.829 389.246 494.231 389.333 492.918 389.405C491.605 389.478 490.563 389.501 489.862 389.533L488.775 389.56L488.322 386.573L489.363 386.273C490.047 386.092 491.043 385.792 492.316 385.473C493.588 385.155 495.136 384.728 496.92 384.314C498.704 383.901 500.706 383.405 502.906 382.919C505.107 382.432 507.479 381.896 510.006 381.382C512.533 380.869 515.19 380.337 517.952 379.823C520.714 379.309 523.567 378.791 526.474 378.296C529.381 377.8 532.333 377.327 535.29 376.855C538.246 376.382 541.212 375.946 544.132 375.555C547.053 375.164 549.928 374.777 552.735 374.432C555.543 374.086 558.223 373.786 560.781 373.523C563.34 373.259 565.762 373.032 568.026 372.841C570.29 372.65 572.327 372.486 574.152 372.359C575.977 372.232 577.575 372.15 578.888 372.077C580.201 372.004 581.243 371.982 581.945 371.954L583.031 371.927L583.484 374.909Z" fill="#1C3A57"/>
<path d="M577.625 404.438L576.607 404.061C575.95 403.802 574.972 403.447 573.754 402.947C572.536 402.447 571.037 401.861 569.366 401.129C567.696 400.397 565.776 399.611 563.729 398.679C561.683 397.747 559.441 396.774 557.11 395.678C554.778 394.583 552.319 393.406 549.797 392.187C547.275 390.969 544.667 389.674 542.041 388.328C539.415 386.983 536.757 385.601 534.099 384.237C531.441 382.873 528.81 381.423 526.225 380C523.64 378.577 521.099 377.168 518.659 375.777C516.218 374.386 513.868 373.023 511.645 371.713C509.422 370.404 507.348 369.127 505.428 367.95C503.509 366.772 501.761 365.677 500.217 364.681C498.673 363.686 497.337 362.808 496.237 362.081C495.137 361.354 494.29 360.758 493.706 360.363L492.8 359.74L494.204 357.062L495.218 357.44C495.875 357.703 496.853 358.058 498.066 358.558C499.28 359.058 500.783 359.644 502.454 360.376C504.124 361.108 506.044 361.895 508.091 362.826C510.137 363.758 512.379 364.736 514.711 365.827C517.042 366.918 519.501 368.1 522.028 369.318C524.554 370.536 527.153 371.836 529.784 373.177C532.415 374.518 535.072 375.905 537.726 377.268C540.379 378.632 543.019 380.078 545.604 381.5C548.19 382.923 550.725 384.332 553.17 385.719C555.615 387.105 557.965 388.469 560.184 389.778C562.403 391.087 564.485 392.365 566.405 393.547C568.325 394.728 570.073 395.819 571.612 396.819C573.152 397.82 574.492 398.688 575.588 399.42C576.684 400.151 577.539 400.747 578.123 401.142L579.029 401.765L577.625 404.438Z" fill="#1C3A57"/>
<path d="M555.434 424.68L554.841 423.771C554.465 423.171 553.89 422.303 553.211 421.171C552.532 420.039 551.672 418.684 550.752 417.08C549.833 415.475 548.765 413.716 547.664 411.748C546.564 409.779 545.351 407.657 544.119 405.384C542.888 403.111 541.602 400.711 540.302 398.211C539.003 395.71 537.667 393.128 536.354 390.483C535.041 387.837 533.71 385.142 532.397 382.441C531.083 379.741 529.807 377.023 528.57 374.336C527.334 371.65 526.125 369.004 524.984 366.427C523.843 363.849 522.761 361.354 521.751 358.976C520.742 356.599 519.823 354.331 518.976 352.235C518.129 350.139 517.378 348.212 516.712 346.498C516.046 344.785 515.503 343.275 515.05 342.039C514.597 340.802 514.267 339.807 514.027 339.143C513.787 338.48 513.683 338.111 513.683 338.111L516.4 336.793C516.4 336.793 516.603 337.111 516.993 337.702C517.382 338.293 517.939 339.175 518.623 340.302C519.306 341.43 520.158 342.794 521.077 344.394C521.996 345.994 523.065 347.757 524.16 349.73C525.256 351.703 526.474 353.821 527.706 356.094C528.937 358.367 530.223 360.763 531.523 363.263C532.822 365.763 534.153 368.35 535.475 370.991C536.798 373.632 538.124 376.332 539.437 379.032C540.75 381.732 542.036 384.446 543.268 387.133C544.499 389.819 545.713 392.465 546.863 395.042C548.013 397.62 549.086 400.115 550.096 402.493C551.106 404.87 552.025 407.138 552.867 409.234C553.709 411.329 554.47 413.252 555.131 414.971C555.792 416.689 556.34 418.194 556.793 419.435C557.245 420.676 557.571 421.662 557.807 422.33C558.042 422.998 558.151 423.362 558.151 423.362L555.434 424.68Z" fill="#1C3A57"/>
<path d="M535.539 389.36C540.613 389.36 544.726 385.231 544.726 380.137C544.726 375.043 540.613 370.913 535.539 370.913C530.465 370.913 526.352 375.043 526.352 380.137C526.352 385.231 530.465 389.36 535.539 389.36Z" fill="#1C3A57"/>
<path d="M536.222 331.447C546.173 331.447 555.899 334.41 564.173 339.959C572.446 345.509 578.894 353.397 582.702 362.627C586.51 371.856 587.506 382.011 585.565 391.809C583.624 401.606 578.832 410.606 571.796 417.669C564.76 424.733 555.796 429.543 546.037 431.492C536.278 433.441 526.163 432.441 516.97 428.618C507.777 424.795 499.92 418.321 494.392 410.015C488.864 401.71 485.913 391.944 485.913 381.955C485.928 368.564 491.233 355.726 500.664 346.257C510.096 336.788 522.884 331.462 536.222 331.447ZM536.222 313.91C522.817 313.91 509.713 317.901 498.567 325.378C487.421 332.854 478.734 343.482 473.604 355.915C468.474 368.349 467.132 382.03 469.747 395.23C472.362 408.429 478.818 420.554 488.296 430.07C497.775 439.586 509.852 446.067 523 448.693C536.147 451.318 549.775 449.971 562.16 444.82C574.544 439.67 585.13 430.949 592.577 419.759C600.025 408.569 604 395.413 604 381.955C604 373.019 602.247 364.171 598.841 355.915C595.434 347.66 590.442 340.158 584.148 333.84C577.855 327.521 570.383 322.509 562.16 319.09C553.937 315.67 545.123 313.91 536.222 313.91Z" fill="#0E1D2C"/>
<path d="M536.222 335.079C545.457 335.079 554.484 337.829 562.163 342.979C569.841 348.13 575.826 355.451 579.359 364.016C582.893 372.582 583.818 382.007 582.017 391.1C580.215 400.193 575.768 408.545 569.238 415.101C562.708 421.657 554.389 426.121 545.331 427.93C536.274 429.739 526.886 428.81 518.354 425.262C509.823 421.714 502.53 415.706 497.4 407.998C492.269 400.289 489.531 391.226 489.531 381.955C489.545 369.527 494.469 357.613 503.222 348.825C511.976 340.037 523.843 335.094 536.222 335.079ZM536.222 325.402C525.081 325.402 514.19 328.718 504.926 334.933C495.663 341.147 488.443 349.979 484.179 360.313C479.916 370.647 478.8 382.018 480.974 392.988C483.147 403.958 488.512 414.035 496.39 421.944C504.268 429.853 514.305 435.24 525.233 437.422C536.16 439.604 547.486 438.484 557.779 434.204C568.073 429.923 576.87 422.674 583.06 413.374C589.25 404.074 592.553 393.14 592.553 381.955C592.553 374.528 591.096 367.174 588.266 360.313C585.435 353.452 581.285 347.217 576.054 341.966C570.824 336.714 564.614 332.548 557.779 329.706C550.945 326.864 543.62 325.402 536.222 325.402Z" fill="#1C3A57"/>
<path d="M215.025 402.833C227.511 402.833 237.632 392.672 237.632 380.137C237.632 367.602 227.511 357.44 215.025 357.44C202.539 357.44 192.417 367.602 192.417 380.137C192.417 392.672 202.539 402.833 215.025 402.833Z" fill="#1C3A57"/>
<path d="M215.709 331.447C225.659 331.446 235.386 334.408 243.66 339.957C251.934 345.506 258.383 353.394 262.191 362.623C266 371.852 266.997 382.008 265.056 391.806C263.115 401.604 258.324 410.604 251.289 417.668C244.253 424.732 235.289 429.543 225.529 431.492C215.77 433.441 205.655 432.441 196.462 428.618C187.269 424.796 179.411 418.322 173.883 410.016C168.355 401.71 165.404 391.945 165.404 381.955C165.418 368.565 170.723 355.727 180.153 346.258C189.584 336.789 202.371 331.463 215.709 331.447ZM215.709 313.91C202.303 313.91 189.199 317.901 178.053 325.378C166.907 332.854 158.22 343.482 153.09 355.915C147.96 368.349 146.618 382.03 149.233 395.23C151.848 408.429 158.304 420.554 167.783 430.07C177.261 439.586 189.338 446.067 202.486 448.693C215.633 451.318 229.261 449.971 241.646 444.82C254.031 439.67 264.616 430.949 272.063 419.759C279.511 408.569 283.486 395.413 283.486 381.955C283.486 373.019 281.733 364.171 278.327 355.915C274.921 347.66 269.928 340.158 263.634 333.84C257.341 327.521 249.869 322.509 241.646 319.09C233.423 315.67 224.609 313.91 215.709 313.91Z" fill="#0E1D2C"/>
<path d="M215.709 335.079C224.943 335.079 233.971 337.829 241.649 342.979C249.327 348.13 255.312 355.451 258.846 364.016C262.38 372.582 263.304 382.007 261.503 391.1C259.701 400.193 255.254 408.545 248.724 415.101C242.194 421.657 233.875 426.121 224.818 427.93C215.76 429.739 206.372 428.81 197.841 425.262C189.309 421.714 182.017 415.706 176.886 407.998C171.756 400.289 169.017 391.226 169.017 381.955C169.032 369.527 173.956 357.613 182.709 348.825C191.462 340.037 203.33 335.094 215.709 335.079ZM215.709 325.402C204.567 325.402 193.676 328.718 184.413 334.933C175.149 341.147 167.929 349.979 163.665 360.313C159.402 370.647 158.286 382.018 160.46 392.988C162.633 403.958 167.998 414.035 175.876 421.944C183.755 429.853 193.792 435.24 204.719 437.422C215.646 439.604 226.972 438.484 237.266 434.204C247.559 429.923 256.357 422.674 262.546 413.374C268.736 404.074 272.04 393.14 272.04 381.955C272.04 366.956 266.105 352.571 255.541 341.966C244.977 331.36 230.649 325.402 215.709 325.402Z" fill="#1C3A57"/>
<path d="M223.51 333.329C223.51 333.329 223.51 333.707 223.51 334.416C223.51 335.125 223.51 336.166 223.429 337.489C223.347 338.811 223.329 340.412 223.216 342.248C223.103 344.085 223.008 346.153 222.826 348.403C222.645 350.653 222.487 353.094 222.256 355.676C222.025 358.258 221.758 360.963 221.454 363.768C221.151 366.572 220.83 369.463 220.458 372.404C220.087 375.345 219.698 378.314 219.295 381.296C218.892 384.278 218.443 387.246 217.986 390.169C217.529 393.092 217.081 395.965 216.587 398.742C216.094 401.52 215.627 404.197 215.152 406.743C214.676 409.288 214.183 411.684 213.725 413.893C213.268 416.103 212.82 418.13 212.426 419.921C212.032 421.712 211.643 423.276 211.335 424.558C211.027 425.839 210.755 426.83 210.583 427.535L210.298 428.585L207.314 428.167C207.314 428.167 207.314 427.79 207.314 427.08C207.314 426.371 207.337 425.33 207.395 424.012C207.454 422.694 207.5 421.085 207.613 419.253C207.726 417.421 207.826 415.348 208.002 413.093C208.179 410.839 208.342 408.402 208.582 405.82C208.822 403.238 209.075 400.529 209.374 397.729C209.673 394.929 210.004 392.033 210.366 389.092C210.728 386.151 211.126 383.182 211.525 380.196C211.923 377.209 212.367 374.245 212.829 371.323C213.291 368.4 213.734 365.527 214.219 362.745C214.703 359.963 215.179 357.29 215.654 354.744C216.13 352.199 216.623 349.808 217.085 347.598C217.547 345.389 217.991 343.362 218.389 341.566C218.788 339.771 219.168 338.216 219.48 336.934C219.793 335.652 220.064 334.661 220.236 333.957L220.522 332.907L223.51 333.329Z" fill="#1C3A57"/>
<path d="M250.673 348.171C250.673 348.171 250.437 348.467 250.002 349.026C249.568 349.585 248.916 350.389 248.069 351.408C247.222 352.426 246.208 353.681 245.004 355.044C243.799 356.408 242.464 358.008 240.951 359.681C239.439 361.354 237.827 363.19 236.075 365.086C234.322 366.981 232.452 368.968 230.519 370.995C228.586 373.023 226.562 375.123 224.479 377.218C222.396 379.314 220.277 381.437 218.14 383.546C216.003 385.655 213.857 387.751 211.71 389.774C209.564 391.796 207.454 393.801 205.371 395.683C203.289 397.565 201.296 399.42 199.367 401.138C197.439 402.856 195.596 404.452 193.889 405.925C192.182 407.397 190.597 408.729 189.189 409.902C187.781 411.075 186.531 412.075 185.508 412.902C184.484 413.73 183.651 414.361 183.099 414.798L182.252 415.48L180.142 413.316L180.817 412.461C181.27 411.916 181.899 411.098 182.75 410.084C183.601 409.07 184.611 407.811 185.816 406.447C187.02 405.084 188.36 403.484 189.891 401.811C191.421 400.138 193.015 398.301 194.767 396.41C196.519 394.519 198.389 392.524 200.323 390.501C202.256 388.478 204.285 386.373 206.358 384.273C208.432 382.173 210.556 380.055 212.697 377.941C214.839 375.827 216.985 373.745 219.127 371.713C221.269 369.681 223.383 367.686 225.466 365.777C227.549 363.867 229.541 362.04 231.47 360.322C233.399 358.604 235.242 357.003 236.953 355.535C238.665 354.067 240.191 352.749 241.594 351.558C242.998 350.367 244.252 349.385 245.28 348.558C246.308 347.73 247.132 347.103 247.689 346.666L248.554 346.007L250.673 348.171Z" fill="#1C3A57"/>
<path d="M262.975 374.909L261.934 375.214C261.25 375.395 260.254 375.696 258.981 376.018C257.709 376.341 256.161 376.759 254.377 377.177C252.593 377.596 250.591 378.087 248.391 378.578C246.19 379.068 243.818 379.6 241.291 380.114C238.764 380.628 236.107 381.155 233.345 381.669C230.583 382.182 227.73 382.705 224.841 383.205C221.952 383.705 218.955 384.173 216.021 384.641C213.087 385.11 210.103 385.551 207.183 385.932C204.262 386.314 201.387 386.714 198.58 387.055C195.772 387.396 193.096 387.701 190.534 387.964C187.971 388.228 185.553 388.451 183.289 388.651C181.025 388.851 178.988 389.005 177.163 389.133C175.338 389.26 173.74 389.346 172.427 389.419C171.114 389.492 170.077 389.515 169.37 389.546L168.288 389.574L167.835 386.587L168.881 386.287C169.561 386.105 170.557 385.805 171.834 385.487C173.11 385.169 174.654 384.742 176.434 384.328C178.213 383.914 180.219 383.419 182.42 382.932C184.62 382.446 187.002 381.9 189.524 381.387C192.046 380.873 194.713 380.341 197.475 379.828C200.237 379.314 203.089 378.796 205.992 378.3C208.894 377.805 211.878 377.332 214.812 376.859C217.746 376.386 220.73 375.95 223.65 375.559C226.571 375.168 229.446 374.782 232.253 374.436C235.061 374.091 237.737 373.791 240.299 373.527C242.862 373.264 245.28 373.036 247.544 372.845C249.808 372.654 251.841 372.491 253.67 372.363C255.499 372.236 257.089 372.154 258.406 372.082C259.724 372.009 260.756 371.986 261.463 371.959L262.545 371.932L262.975 374.909Z" fill="#1C3A57"/>
<path d="M257.111 404.438L256.093 404.061C255.436 403.802 254.463 403.447 253.245 402.947C252.027 402.447 250.528 401.861 248.857 401.129C247.186 400.397 245.266 399.611 243.215 398.679C241.164 397.747 238.932 396.774 236.596 395.678C234.259 394.583 231.805 393.406 229.283 392.187C226.761 390.969 224.153 389.674 221.531 388.328C218.91 386.983 216.243 385.601 213.59 384.237C210.936 382.873 208.296 381.423 205.716 380C203.135 378.577 200.59 377.168 198.15 375.777C195.709 374.386 193.355 373.023 191.136 371.713C188.917 370.404 186.834 369.127 184.915 367.95C182.995 366.772 181.247 365.677 179.703 364.681C178.159 363.686 176.828 362.808 175.728 362.081C174.627 361.354 173.776 360.758 173.192 360.363L172.286 359.74L173.685 357.062L174.704 357.44C175.361 357.703 176.334 358.058 177.552 358.558C178.77 359.058 180.269 359.644 181.94 360.376C183.611 361.108 185.526 361.895 187.577 362.826C189.628 363.758 191.86 364.736 194.197 365.827C196.533 366.918 198.983 368.1 201.509 369.318C204.036 370.536 206.635 371.836 209.265 373.177C211.896 374.518 214.554 375.905 217.212 377.268C219.87 378.632 222.505 380.078 225.086 381.5C227.667 382.923 230.211 384.332 232.656 385.719C235.101 387.105 237.447 388.469 239.67 389.778C241.893 391.087 243.972 392.365 245.887 393.547C247.802 394.728 249.554 395.819 251.098 396.819C252.642 397.82 253.974 398.688 255.074 399.42C256.174 400.151 257.021 400.747 257.605 401.142L258.51 401.765L257.111 404.438Z" fill="#1C3A57"/>
<path d="M234.925 424.68L234.332 423.771C233.956 423.171 233.381 422.303 232.697 421.171C232.013 420.039 231.162 418.684 230.239 417.08C229.315 415.475 228.251 413.716 227.155 411.748C226.059 409.779 224.837 407.657 223.605 405.384C222.374 403.111 221.092 400.711 219.788 398.211C218.484 395.71 217.153 393.128 215.84 390.483C214.527 387.837 213.2 385.142 211.883 382.441C210.565 379.741 209.297 377.023 208.061 374.336C206.825 371.65 205.611 369.004 204.475 366.427C203.339 363.849 202.247 361.354 201.238 358.976C200.228 356.599 199.309 354.331 198.467 352.235C197.624 350.139 196.864 348.212 196.203 346.498C195.542 344.785 194.998 343.275 194.541 342.039C194.084 340.802 193.758 339.807 193.522 339.143C193.287 338.48 193.178 338.111 193.178 338.111L195.895 336.793L196.488 337.702C196.864 338.307 197.439 339.175 198.118 340.302C198.797 341.43 199.653 342.794 200.572 344.394C201.491 345.994 202.56 347.757 203.655 349.73C204.751 351.703 205.974 353.821 207.201 356.094C208.428 358.367 209.718 360.763 211.018 363.263C212.317 365.763 213.653 368.35 214.975 370.991C216.297 373.632 217.597 376.332 218.955 379.032C220.313 381.732 221.55 384.446 222.786 387.133C224.022 389.819 225.231 392.465 226.376 395.042C227.522 397.62 228.599 400.115 229.614 402.493C230.628 404.87 231.543 407.138 232.385 409.234C233.227 411.329 233.983 413.252 234.649 414.971C235.314 416.689 235.858 418.194 236.31 419.435C236.763 420.676 237.094 421.662 237.329 422.33C237.565 422.998 237.673 423.362 237.673 423.362L234.925 424.68Z" fill="#1C3A57"/>
<path d="M394.138 384.114L386.563 391.724H366.16L363.244 398.747H292.13L261.617 404.115C258.192 404.715 254.668 404.337 251.447 403.024L206.422 384.651C203.503 383.459 201.006 381.417 199.253 378.788C197.5 376.159 196.572 373.063 196.587 369.9L196.714 346.762C196.714 346.762 199.626 343.253 207.789 345.007C215.953 346.762 243.926 350.276 243.926 350.276L270.161 349.112L268.802 350.194L291.537 339.075L394.138 384.114Z" fill="#0E1D2C"/>
<path d="M315.398 372.177C315.398 372.177 319.618 382.241 320.832 386.128C322.045 390.015 310.386 394.956 324.454 394.956C338.522 394.956 444.547 389.66 444.547 389.66C444.547 389.66 463.423 389.305 465.031 381.887V372.341H371.847L315.398 372.177Z" fill="#0E1D2C"/>
<path d="M173.224 286.69C173.224 286.69 184.367 270.966 206.359 261.893C229.451 252.347 233.467 255.843 233.467 255.843H258.483L366.025 279.431C366.025 279.431 361.809 296.973 355.783 309.673C355.783 309.673 357.594 335.684 377.272 376.409H315.399C315.399 376.409 300.909 342.98 265.656 321.206C230.402 299.432 208.881 299.191 198.942 297.377C189.003 295.563 166.64 293 173.224 286.69Z" fill="#E0313A"/>
<path d="M129.457 357.863C129.457 357.863 134.275 359.272 142.71 347.78C151.146 336.289 169.017 312.096 181.65 303.627L194.328 295.159L174.446 286.067C174.446 286.067 163.602 295.341 157.575 308.65C151.549 321.96 129.457 357.863 129.457 357.863Z" fill="#0E1D2C"/>
<path d="M541.004 384.887L531.115 390.796C530.656 391.071 530.148 391.25 529.619 391.325C529.091 391.4 528.552 391.368 528.036 391.232C527.52 391.096 527.036 390.858 526.612 390.532C526.188 390.205 525.834 389.798 525.568 389.333L462.233 278.326L472.366 272.453L530.685 374.782L535.915 376.041L541.004 384.887Z" fill="#1C3A57"/>
<path d="M445.701 218.495L450.972 214.404C450.972 214.404 459.407 211.986 469.948 219.859C480.489 227.732 488.929 235.282 501.276 252.824C513.624 270.366 515.136 272.785 515.136 272.785C515.136 272.785 513.325 276.421 506.397 281.876C499.47 287.331 488.023 304.555 481.395 316.956C474.766 329.356 463.423 375.223 463.423 375.223H458.402C458.402 375.223 436.36 227.868 445.701 218.495Z" fill="#E0313A"/>
<path d="M432.294 228.323C431.813 228.853 431.464 229.491 431.275 230.183C431.086 230.875 431.063 231.602 431.208 232.305C440.472 277.126 438.629 298.423 438 303.927C437.37 309.432 416.211 375.2 416.211 375.2H459.588C459.588 375.2 457.279 353.835 457.881 344.744C458.275 338.834 462.504 308.791 465.402 288.572C467.474 274.363 465.708 259.856 460.29 246.565C459.271 244.083 458.176 241.596 457.017 239.21C450.388 225.6 445.366 224.795 447.173 218.545L432.294 228.323Z" fill="#0E1D2C"/>
<path d="M580.201 311.187C573.573 301.186 542.847 274.594 515.136 272.78C515.136 272.78 459.23 318.469 459.081 376.623C459.534 376.473 464.243 376.123 464.705 376.018C469.192 359.826 479.194 324.974 497.061 311.792C507.977 303.727 527.787 302.114 537.123 302.7C546.46 303.287 572.672 307.841 579.599 317.219C579.599 317.237 586.83 321.165 580.201 311.187Z" fill="#0E1D2C"/>
<path d="M413.907 193.284C413.907 193.284 427.273 223.786 429.886 226.205C431.013 227.25 434.101 226.809 437.719 224.995C441.337 223.182 455.038 211.831 455.038 211.831L469.849 210.067C469.849 210.067 476.88 210.772 477.482 204.121C478.085 197.471 467.521 174.179 466.616 173.574C465.71 172.97 441.011 171.156 441.011 171.156C441.011 171.156 431.955 179.925 428.957 181.743C425.96 183.561 413.907 190.262 413.907 193.284Z" fill="#E0313A"/>
<path d="M426.97 182.866C423.931 184.752 419.327 187.016 415.713 189.557C414.708 190.262 410.995 192.58 413.404 197.216C413.404 197.216 427.273 223.786 429.886 226.205C431.013 227.25 432.557 228.25 437.397 225.441C440.556 223.488 443.606 221.363 446.535 219.077C442.74 215.395 427.721 184.302 426.97 182.866Z" fill="#0E1D2C"/>
<path d="M465.139 173.288C464.332 174.202 463.478 175.075 462.581 175.902C462.527 175.983 462.468 176.065 462.418 176.147C462.128 176.602 461.907 177.138 461.63 177.611C461.458 178.174 461.282 178.734 461.141 179.302C461.304 180.738 461.019 181.043 460.983 180.475C460.983 180.57 460.983 180.67 460.983 180.761C460.984 181.563 461.033 182.365 461.128 183.161C461.178 182.866 461.282 183.125 461.205 184.525C461.207 184.535 461.207 184.546 461.205 184.557C461.345 185.202 461.499 185.848 461.658 186.484C462.038 187.916 462.563 189.293 463.016 190.693V190.716C463.279 191.266 463.532 191.816 463.804 192.362C466.634 198.035 470.5 203.071 474.191 208.19C474.376 208.449 474.566 208.699 474.752 208.954C476.034 208.335 477.224 206.99 477.469 204.149C478.071 197.494 467.508 174.206 466.602 173.601C466.127 173.445 465.637 173.34 465.139 173.288Z" fill="white"/>
<path d="M427.237 202.762L409.338 207.013C407.685 207.404 405.947 206.017 405.449 203.917C404.996 201.917 405.802 199.967 407.337 199.458L424.855 193.384C426.585 192.807 430.845 193.716 431.321 195.985L431.706 197.803C432.136 199.871 428.849 202.38 427.237 202.762Z" fill="#0E1D2C"/>
<path d="M221.432 256.247C221.432 256.247 190.819 259.884 164.381 297.577H190.882C191.562 297.095 192.241 296.623 192.906 296.168C220.218 277.617 244.719 272.78 259.982 272.78L260.385 253.424L221.432 256.247Z" fill="#E0313A"/>
<path opacity="0.06" d="M225.978 263.33C237.334 261.32 248.785 259.693 260.281 258.748L260.394 253.424L221.455 256.247C221.455 256.247 205.109 258.184 185.979 273.939C198.535 268.094 212.412 265.73 225.978 263.33Z" fill="black"/>
<path d="M257.383 256.284H149.973C149.185 256.284 148.43 255.97 147.873 255.41C147.316 254.851 147.003 254.093 147.003 253.302C147.003 252.511 147.316 251.752 147.873 251.193C148.43 250.634 149.185 250.32 149.973 250.32H257.383C258.171 250.32 258.926 250.634 259.484 251.193C260.041 251.752 260.354 252.511 260.354 253.302C260.354 253.693 260.278 254.082 260.129 254.444C259.98 254.806 259.761 255.135 259.485 255.412C259.209 255.689 258.881 255.908 258.521 256.058C258.16 256.208 257.773 256.284 257.383 256.284Z" fill="#0E1D2C"/>
<path d="M203.818 269.175C203.575 269.278 203.314 269.331 203.051 269.332C202.787 269.333 202.526 269.282 202.282 269.181C202.038 269.081 201.816 268.933 201.629 268.746C201.442 268.56 201.294 268.338 201.192 268.094L194.994 253.197C194.788 252.703 194.786 252.148 194.988 251.653C195.19 251.157 195.58 250.763 196.071 250.556C196.314 250.454 196.575 250.401 196.839 250.4C197.103 250.399 197.364 250.45 197.608 250.55C197.852 250.651 198.073 250.799 198.26 250.985C198.447 251.172 198.596 251.394 198.697 251.638L204.919 266.539C205.02 266.784 205.072 267.048 205.071 267.313C205.071 267.579 205.018 267.842 204.915 268.087C204.813 268.332 204.663 268.555 204.475 268.741C204.287 268.928 204.064 269.076 203.818 269.175Z" fill="#0E1D2C"/>
<path d="M257.895 250.761V267.057C257.895 268.619 258.401 270.138 259.337 271.386C260.273 272.633 261.588 273.541 263.084 273.971L300.004 284.626C306.872 286.608 314.039 287.331 321.163 286.758L367.469 283.04C369.051 282.914 370.528 282.194 371.604 281.024C372.681 279.854 373.279 278.319 373.278 276.726V266.053C373.275 265.181 373.093 264.319 372.744 263.52C372.395 262.722 371.887 262.004 371.25 261.411C370.613 260.818 369.861 260.363 369.042 260.073C368.223 259.784 367.353 259.667 366.487 259.729L326.157 260.184C317.907 260.805 309.628 259.464 301.992 256.27L267.806 244.106C266.717 243.652 265.533 243.476 264.359 243.592C263.185 243.709 262.058 244.114 261.078 244.772C260.097 245.43 259.294 246.321 258.739 247.366C258.183 248.411 257.894 249.577 257.895 250.761Z" fill="#0E1D2C"/>
<path d="M178.743 296.354C178.743 296.354 195.926 279.081 223.288 279.081C264.039 279.081 274.195 282.285 299.017 302.137C323.838 321.988 345.617 348.085 348.651 351.43C370.041 375.032 363.213 376.409 363.213 376.409H258.922C258.922 376.409 218.833 348.226 192.743 346.307C166.654 344.389 130.381 349.512 178.743 296.354Z" fill="#E85346"/>
<path opacity="0.06" d="M167.749 340.625C173.781 325.488 183.66 313.051 196.855 303.555C208.007 295.532 220.907 290.963 234.305 288.49C246.543 286.232 258.939 284.939 271.379 284.622C259.683 280.076 246.407 279.062 223.288 279.062C195.926 279.062 178.743 296.336 178.743 296.336C146.084 332.247 152.029 341.552 167.36 344.412C167.151 343.137 167.285 341.83 167.749 340.625Z" fill="black"/>
<path d="M190.909 270.362L178.055 269.562L169.221 280.853L173.224 286.69C173.224 286.69 181.088 285.813 190.909 270.362Z" fill="#C41700"/>
<path d="M437.049 158.715L433.462 158.28L430.607 182L434.194 182.435L437.049 158.715Z" fill="#0E1D2C"/>
<path d="M435.314 130.317C435.314 130.317 442.464 146.568 442.138 149.268C441.812 151.968 442.713 162.133 431.484 162.142C431.484 162.142 429.138 141.295 435.314 130.317Z" fill="#E0313A"/>
<path d="M429.641 163.596C429.205 163.542 428.808 163.316 428.537 162.968C428.267 162.621 428.144 162.18 428.197 161.742L432.027 129.922C432.08 129.484 432.304 129.086 432.65 128.814C432.995 128.542 433.434 128.419 433.87 128.472C434.306 128.525 434.703 128.75 434.973 129.097C435.244 129.444 435.367 129.884 435.314 130.322L431.484 162.142C431.458 162.359 431.39 162.569 431.283 162.759C431.177 162.95 431.034 163.117 430.863 163.252C430.692 163.387 430.496 163.487 430.286 163.546C430.076 163.605 429.857 163.622 429.641 163.596Z" fill="#1C3A57"/>
<path d="M426.938 182.997L430.809 190.652C430.809 190.652 437.094 187.139 437.094 174.742L426.938 182.997Z" fill="#0E1D2C"/>
<path d="M419.992 259.866C420.735 252.538 419.73 236.619 398.444 231.1C370.435 223.827 316.943 209.817 316.943 209.817C316.943 209.817 273.611 203.935 265.239 214.454C261.92 218.618 265.275 230.819 266.529 236.996C269.02 249.27 282.608 258.816 310.803 260.129C334.244 261.234 380.17 264.157 387.152 264.607C385.793 268.857 382.32 280.517 380.686 293.136C377.064 321.079 373.265 354.958 373.265 354.958C373.265 354.958 392.467 358.476 392.87 356.458C393.223 354.685 414.065 281.267 419.069 263.652H419.345C419.585 262.712 419.765 261.757 419.884 260.793C420.051 260.207 420.137 259.884 420.137 259.884L419.992 259.866Z" fill="#1C3A57"/>
<path opacity="0.06" d="M419.766 252.061L417.914 251.82C417.878 251.888 417.851 251.952 417.81 252.02C416.026 255.079 412.874 256.725 409.406 256.861C397.774 257.316 386.246 253.979 375.044 251.256C372.495 250.638 369.937 250.038 367.347 249.506C366.218 249.276 365.087 249.059 363.955 248.856C363.19 248.72 359.541 248.315 362.737 248.615C359.459 248.306 356.199 247.942 352.912 247.706C345.341 247.192 337.753 246.879 330.2 246.115C314.715 244.551 296.649 241.756 285.691 229.432C282.069 225.341 281.956 219.695 285.691 215.613C288.82 212.19 294.892 211.84 298.51 214.731C299.502 212.206 301.24 210.045 303.49 208.54C290.02 207.69 270.523 207.735 265.189 214.449C261.87 218.613 265.225 230.814 266.48 236.992C268.97 249.265 282.558 258.811 310.753 260.125C334.194 261.23 380.12 264.152 387.102 264.602C385.744 268.853 382.271 280.512 380.636 293.131C377.014 321.074 373.215 354.953 373.215 354.953C373.215 354.953 392.418 358.472 392.821 356.453C393.174 354.681 414.015 281.263 419.019 263.648H419.295C419.535 262.707 419.715 261.752 419.834 260.789C420.001 260.202 420.087 259.879 420.087 259.879H419.938C420.216 257.277 420.159 254.649 419.766 252.061Z" fill="black"/>
<path d="M312.591 83.5505C312.591 83.5505 295.132 91.151 287.901 105.665C280.67 120.18 276.866 140.572 274.159 159.623C271.451 178.674 263.917 217.677 263.917 217.677C263.917 217.677 272.13 223.586 289.087 221.559C316.897 218.209 319.605 210.649 319.605 210.649C319.605 210.649 322.498 199.244 331.264 164.142C333.723 154.305 337.707 133.522 334.696 122.721C330.476 107.616 327.049 80.3776 312.591 83.5505Z" fill="#E0313A"/>
<path opacity="0.06" d="M293.466 216.272C291.397 211.278 289.9 206.064 289.006 200.73C287.122 189.939 286.47 178.952 286.592 168.001C286.644 163.298 286.84 158.601 287.181 153.909C287.332 151.882 287.516 149.856 287.733 147.832C287.833 146.944 287.939 146.059 288.05 145.177C288.15 144.422 288.254 143.668 288.354 142.904C288.35 142.865 288.35 142.825 288.354 142.786C288.354 140.554 288.806 138.195 289.096 135.967C289.499 132.785 289.929 129.631 290.455 126.48C291.358 120.87 292.597 115.318 294.163 109.857C296.164 102.979 298.827 95.5876 302.82 89.2509C297.581 92.9647 291.501 98.456 287.905 105.647C280.661 120.162 276.871 140.554 274.163 159.605C271.456 178.656 263.917 217.677 263.917 217.677C263.917 217.677 272.13 223.586 289.087 221.559C291.405 221.277 293.555 220.974 295.535 220.65C294.765 219.209 294.081 217.74 293.466 216.272Z" fill="black"/>
<path d="M409.08 192.653H409.017L407.427 192.198C406.377 191.903 404.842 191.434 402.899 190.889C398.983 189.78 393.391 188.234 386.708 186.393L375.986 183.407L370.186 181.711C368.221 181.129 366.219 180.547 364.204 179.929C363.199 179.626 362.191 179.309 361.18 178.979C360.17 178.661 359.156 178.338 358.146 178.002C356.131 177.338 354.125 176.638 352.169 175.906C350.213 175.174 348.325 174.401 346.645 173.606C345.871 173.253 345.116 172.86 344.381 172.429L344.137 172.288L343.924 172.151L343.711 172.015C343.643 171.969 343.598 171.933 343.539 171.888L343.372 171.769C343.308 171.729 343.29 171.697 343.245 171.665L343.132 171.565C343.091 171.538 343.132 171.565 343.159 171.565L343.227 171.597L343.29 171.638H343.317L342.991 171.351L342.824 171.206L342.783 171.169C343.385 171.656 342.946 171.297 343.082 171.406V171.379L343.028 171.288C342.991 171.242 342.932 171.147 342.874 171.065L342.783 170.938L342.683 170.779C342.398 170.356 342.05 169.819 341.687 169.16C340.863 167.662 340.116 166.122 339.451 164.546C338.722 162.837 338.038 161.001 337.372 159.137C336.707 157.273 336.109 155.355 335.507 153.455C334.905 151.555 334.375 149.627 333.841 147.741C333.306 145.854 332.817 143.977 332.337 142.145C331.857 140.313 331.409 138.508 330.979 136.776C330.549 135.045 330.141 133.34 329.756 131.708C329.372 130.076 329 128.526 328.652 127.021L327.674 122.78L326.071 115.916L325.052 111.507C324.826 110.538 324.703 110.025 324.703 110.025L324.626 109.702C323.803 106.284 321.709 103.311 318.772 101.394C315.835 99.4764 312.279 98.76 308.833 99.3915C305.387 100.023 302.312 101.954 300.239 104.79C298.166 107.625 297.253 111.149 297.686 114.639C297.686 114.639 297.686 114.807 297.744 115.13C297.803 115.452 297.835 115.884 297.916 116.457C298.084 117.603 298.306 119.266 298.664 121.357C299.021 123.448 299.479 125.976 300.072 128.862C300.366 130.308 300.706 131.84 301.068 133.458C301.43 135.076 301.847 136.767 302.286 138.536C302.725 140.304 303.223 142.145 303.748 144.05C304.274 145.954 304.862 147.913 305.483 149.936C306.103 151.959 306.796 154.027 307.529 156.155C308.263 158.282 309.078 160.442 309.947 162.655C310.816 164.869 311.794 167.11 312.849 169.401C313.904 171.692 315.077 174.02 316.431 176.392C317.852 178.942 319.458 181.384 321.235 183.697C322.272 185.041 323.391 186.32 324.586 187.525L325.07 188.011L325.595 188.502C325.953 188.83 326.297 189.152 326.705 189.484L327.298 189.975L327.447 190.093L327.823 190.398L327.868 190.43L328.049 190.557L328.407 190.807L328.81 191.084L329.231 191.371L329.657 191.652L330.046 191.898L330.676 192.262C330.879 192.375 331.101 192.507 331.296 192.607L331.884 192.912C332.079 193.012 332.287 193.121 332.473 193.207L333.039 193.475L333.601 193.734L334.144 193.966C335.588 194.585 336.951 195.085 338.264 195.521C339.577 195.957 340.872 196.326 342.131 196.666C343.39 197.007 344.621 197.303 345.844 197.576C348.284 198.144 350.671 198.589 353.002 198.998C354.171 199.204 355.328 199.397 356.475 199.576C357.622 199.755 358.756 199.915 359.876 200.058C362.14 200.358 364.322 200.635 366.473 200.853C368.624 201.071 370.715 201.308 372.757 201.449C376.833 201.785 380.686 202.012 384.24 202.171C391.34 202.48 397.253 202.494 401.401 202.421C403.475 202.399 405.109 202.317 406.223 202.285C406.78 202.285 407.21 202.24 407.5 202.226L407.953 202.203C409.096 202.143 410.182 201.679 411.019 200.894C411.855 200.108 412.388 199.051 412.524 197.909C412.659 196.767 412.388 195.614 411.759 194.653C411.13 193.692 410.182 192.985 409.085 192.657L409.08 192.653Z" fill="#E09776"/>
<path d="M394.138 188.416L386.69 186.375L375.968 183.388L370.186 181.711C368.221 181.129 366.219 180.547 364.204 179.929C363.199 179.626 362.191 179.309 361.18 178.979C360.17 178.661 359.156 178.338 358.146 178.002C356.131 177.338 354.125 176.638 352.169 175.906C350.213 175.174 348.325 174.401 346.645 173.606C345.871 173.253 345.116 172.86 344.381 172.429L344.137 172.288L343.924 172.151L343.711 172.015C343.643 171.969 343.598 171.933 343.539 171.888L343.372 171.769C343.308 171.729 343.29 171.697 343.245 171.665L343.132 171.565C343.091 171.538 343.132 171.565 343.159 171.565L343.227 171.597L343.29 171.638H343.317L342.991 171.351L342.824 171.206L342.783 171.169C343.385 171.656 342.946 171.297 343.082 171.406V171.379L343.028 171.288C342.991 171.242 342.933 171.147 342.874 171.065L342.783 170.938L342.683 170.778C342.398 170.356 342.05 169.819 341.687 169.16C340.863 167.662 340.116 166.122 339.451 164.546C338.722 162.837 338.038 161.001 337.372 159.137C336.707 157.273 336.109 155.355 335.507 153.455C334.905 151.555 334.375 149.627 333.841 147.741C333.306 145.854 332.817 143.977 332.337 142.145C331.857 140.313 331.409 138.508 330.979 136.776C330.549 135.045 330.141 133.34 329.756 131.708C329.372 130.076 329 128.526 328.652 127.021L327.674 122.78L326.071 115.916L325.052 111.507C324.826 110.538 324.703 110.025 324.703 110.025L324.626 109.702C323.803 106.284 321.709 103.311 318.772 101.394C315.835 99.4764 312.279 98.76 308.833 99.3915C305.387 100.023 302.312 101.954 300.239 104.79C298.166 107.625 297.253 111.149 297.686 114.639C297.686 114.639 297.686 114.807 297.744 115.13C297.803 115.452 297.835 115.884 297.916 116.457C298.084 117.603 298.306 119.266 298.664 121.357C299.021 123.448 299.479 125.976 300.072 128.862C300.366 130.308 300.706 131.84 301.068 133.458C301.43 135.076 301.847 136.767 302.286 138.536C302.725 140.304 303.223 142.145 303.748 144.05C304.274 145.954 304.862 147.913 305.483 149.936C306.103 151.959 306.796 154.027 307.529 156.155C308.263 158.282 309.078 160.441 309.947 162.655C310.816 164.869 311.794 167.11 312.849 169.401C313.904 171.692 315.077 174.02 316.431 176.392C317.852 178.942 319.458 181.384 321.235 183.697C322.272 185.041 323.391 186.32 324.586 187.525L325.07 188.011L325.595 188.502C325.953 188.83 326.297 189.152 326.705 189.484L327.298 189.975L327.447 190.093L327.823 190.398L327.868 190.43L328.049 190.557L328.407 190.807L328.81 191.084L329.231 191.371L329.657 191.652L330.046 191.898L330.676 192.262C330.879 192.375 331.101 192.507 331.296 192.607L331.885 192.912C332.079 193.012 332.288 193.121 332.473 193.207L333.039 193.475L333.601 193.734L334.144 193.966C335.588 194.584 336.951 195.085 338.264 195.521C339.577 195.957 340.872 196.325 342.131 196.666C343.39 197.007 344.621 197.303 345.844 197.576C348.284 198.144 350.671 198.589 353.002 198.998C354.171 199.204 355.328 199.397 356.475 199.576C357.622 199.754 358.756 199.915 359.876 200.058C362.14 200.358 364.322 200.635 366.473 200.853C368.624 201.071 370.715 201.308 372.758 201.449C376.833 201.785 380.686 202.012 384.24 202.171C387.432 202.308 390.38 202.389 393.042 202.426C393.5 197.762 393.93 193.093 394.138 188.416Z" fill="#E0313A"/>
<path opacity="0.06" d="M392.427 197.539C381.945 197.207 371.254 196.744 361.053 194.103C351.866 191.73 343.218 187.307 336.322 180.711C329.788 174.451 325.002 166.251 321.081 158.146C312.943 141.329 307.059 123.505 303.581 105.138C303.36 103.994 303.304 102.825 303.413 101.665C301.376 103.099 299.767 105.064 298.757 107.347C297.748 109.63 297.378 112.146 297.686 114.625C297.686 114.625 297.686 114.793 297.744 115.116C297.803 115.439 297.835 115.871 297.916 116.443C298.084 117.589 298.306 119.253 298.664 121.344C299.021 123.435 299.479 125.962 300.072 128.849C300.366 130.294 300.706 131.826 301.068 133.444C301.43 135.063 301.847 136.754 302.286 138.522C302.725 140.29 303.223 142.131 303.748 144.036C304.274 145.941 304.862 147.9 305.483 149.923C306.103 151.946 306.796 154.014 307.529 156.141C308.263 158.269 309.078 160.428 309.947 162.642C310.816 164.855 311.794 167.096 312.849 169.388C313.904 171.679 315.077 174.006 316.431 176.379C317.852 178.929 319.458 181.37 321.235 183.684C322.272 185.028 323.391 186.306 324.586 187.511L325.07 187.998L325.595 188.489C325.953 188.816 326.297 189.139 326.705 189.471L327.298 189.961L327.447 190.08L327.823 190.384L327.868 190.416L328.049 190.543L328.407 190.793L328.81 191.071L329.231 191.357L329.657 191.639L330.046 191.884L330.676 192.248C330.879 192.362 331.101 192.493 331.296 192.593L331.884 192.898C332.079 192.998 332.287 193.107 332.473 193.193L333.039 193.462L333.601 193.721L334.144 193.953C335.588 194.571 336.951 195.071 338.264 195.507C339.577 195.944 340.872 196.312 342.131 196.653C343.39 196.994 344.621 197.289 345.844 197.562C348.284 198.13 350.671 198.576 353.002 198.985C354.171 199.191 355.328 199.383 356.475 199.562C357.622 199.741 358.756 199.901 359.876 200.044C362.14 200.344 364.322 200.621 366.473 200.839C368.624 201.058 370.715 201.294 372.758 201.435C376.833 201.771 380.686 201.999 384.24 202.158C387.432 202.294 390.38 202.376 393.042 202.412C393.202 200.77 393.353 199.127 393.495 197.485C393.141 197.527 392.784 197.546 392.427 197.539Z" fill="black"/>
<path d="M358.413 50.803C358.413 50.803 359.482 54.0396 358.676 58.6672C358.449 59.9854 357.834 61.4673 357.834 61.8719C357.834 62.3674 360.577 66.8404 361.823 69.0951C361.915 69.2423 361.972 69.4093 361.988 69.5826C362.004 69.7559 361.98 69.9307 361.916 70.0926C361.853 70.2546 361.752 70.3993 361.623 70.515C361.493 70.6308 361.338 70.7143 361.171 70.7588C361.171 70.7588 356.643 72.2134 356.756 72.7862C356.756 72.7862 354.85 88.6281 351.322 89.4008C349.181 89.8554 336.467 86.9598 336.467 86.9598L327.343 96.324L312.034 84.096C312.034 84.096 315.656 81.9186 315.987 77.7865C316.168 75.5136 313.995 72.5407 312.704 70.177C311.02 67.0859 328.81 40.0297 328.81 40.0297L358.413 50.803Z" fill="#E09776"/>
<path d="M340.755 70.3224C341.256 68.7504 341.85 67.2097 342.534 65.7085C345.251 59.6582 349.543 54.5078 353.401 49.1621L328.81 40.0251C328.81 40.0251 311.02 67.0813 312.705 70.1724C313.565 71.7452 314.43 74.9454 315.118 76.6728C316.078 76.6728 320.85 76.441 318.428 76.8728C322.458 76.1501 326.03 71.2452 329.974 70.1224C331.934 69.5633 338.663 71.1361 340.565 70.3997L340.755 70.3224Z" fill="#0E1D2C"/>
<path d="M334.9 69.0587C334.9 69.0587 339.31 89.5145 340.084 89.1418C340.859 88.769 345.11 89.5282 345.11 89.5282L341.66 65.563L334.9 69.0587Z" fill="#0E1D2C"/>
<path d="M398.041 200.212C398.041 200.212 401.541 206.535 402.764 207.59C403.986 208.644 406.413 208.704 409.388 208.004C409.388 208.004 412.91 210.731 414.138 210.926C415.365 211.122 418.158 209.522 420.083 208.117C422.007 206.713 426.381 200.917 426.557 200.212C426.734 199.508 425.856 196.176 424.633 194.594C423.411 193.012 422.369 190.202 419.385 190.202C416.401 190.202 410.638 190.025 407.491 190.025C404.344 190.025 401.541 191.784 401.541 191.784L398.041 200.212Z" fill="#E09776"/>
<path d="M408.564 208.099C411.047 208.099 413.06 206.078 413.06 203.585C413.06 201.092 411.047 199.071 408.564 199.071C406.081 199.071 404.068 201.092 404.068 203.585C404.068 206.078 406.081 208.099 408.564 208.099Z" fill="#0E1D2C"/>
<path d="M427.06 374.864C427.06 374.864 427.513 370.536 418.154 370.163C408.795 369.791 394.586 359.595 393.251 353.799L373.052 352.921C373.052 352.921 369.357 361.104 369.574 375.841C369.574 375.841 381.623 378.355 387.903 377.6C407.314 375.286 415.342 381.909 427.06 374.864Z" fill="white"/>
<path opacity="0.06" d="M392.372 375.641C385.01 372.85 379.762 368.304 376.914 360.822C375.895 358.149 376.538 355.367 378.046 353.158L373.065 352.94C373.065 352.94 369.371 361.122 369.588 375.859C369.588 375.859 381.636 378.373 387.917 377.618C391.059 377.236 394.224 377.063 397.389 377.1C395.685 376.732 394.008 376.245 392.372 375.641Z" fill="black"/>
<path d="M346.894 49.8303C346.894 49.8303 353.279 52.1623 365.658 50.4167C365.658 50.4167 358.866 40.8979 358.499 40.3161C358.132 39.7342 346.894 49.8303 346.894 49.8303Z" fill="#0E1D2C"/>
<path d="M312.614 73.4089C312.614 73.4089 304.011 70.886 302.752 62.731C301.801 56.5625 295.24 25.9742 330.064 23.2286C338.744 22.5422 349.022 25.7515 353.279 30.9973C357.535 36.243 358.499 40.316 358.499 40.316L353.333 44.5481C351.3 46.2164 349.627 48.2833 348.416 50.6225C347.206 52.9618 346.483 55.5243 346.292 58.1535L345.93 63.2265C345.93 63.2265 344.196 69.4087 336.449 70.2178C331.957 70.6906 320.379 72.618 312.614 73.4089Z" fill="#E0313A"/>
<path d="M302.141 58.7717C302.367 60.4809 302.594 61.8537 302.752 62.731C303.06 64.7629 303.89 66.6791 305.161 68.2905C308.896 68.2127 312.623 67.9091 316.322 67.3813L316.861 67.2995L318.278 67.0904C319.226 66.948 320.169 66.7964 321.108 66.6358C322.996 66.3222 324.875 65.9858 326.754 65.6449C333.166 64.4721 339.573 63.3265 345.993 62.3083L346.292 58.1535C346.458 55.8934 347.016 53.6797 347.94 51.6122C331.382 54.6987 319.926 55.6079 302.141 58.7717Z" fill="white"/>
<path opacity="0.3" d="M350.657 77.0911C350.657 77.0911 353.826 77.782 355.995 76.9047C355.995 76.9047 355.995 79.5276 355.121 81.4232C355.121 81.4232 351.237 81.0232 350.657 77.0911Z" fill="white"/>
<path d="M257.179 139.063H138.613V250.229H257.179V139.063Z" fill="#FFC600"/>
<path opacity="0.06" d="M230.392 227.686C227.164 225.491 224.126 223.068 220.974 220.777C221.051 220.85 219.403 219.7 219.032 219.413C218.344 218.913 217.674 218.409 216.972 217.9C215.496 216.806 214.026 215.698 212.562 214.577C206.195 209.728 199.938 204.728 193.789 199.576C182.827 190.466 172.318 180.797 161.514 171.447C152.581 163.719 143.53 155.728 138.613 144.85V250.229H257.179V243.319C247.992 238.56 238.955 233.514 230.392 227.686Z" fill="black"/>
<path d="M259.941 139.063H135.855V155.2H259.941V139.063Z" fill="white"/>
<path d="M173.803 136.945H160.55V250.938H173.803V136.945Z" fill="#1C3A57"/>
<path d="M235.246 136.945H221.993V250.938H235.246V136.945Z" fill="#1C3A57"/>
<path opacity="0.06" d="M316.816 59.8854C315.005 51.9486 315.005 42.9617 317.721 35.2248C319.126 31.0773 321.357 27.2601 324.278 24.006C296.006 29.5472 301.856 56.9307 302.752 62.7311C304.006 70.8861 312.614 73.409 312.614 73.409C315.562 73.109 319.066 72.6453 322.521 72.1589C319.781 68.5159 317.837 64.3338 316.816 59.8854Z" fill="black"/>
<path d="M240.901 36.8204C240.901 53.0078 217.655 87.828 208.183 101.37C207.737 102.006 207.146 102.525 206.458 102.883C205.771 103.241 205.007 103.428 204.233 103.428C203.458 103.428 202.695 103.241 202.007 102.883C201.32 102.525 200.728 102.006 200.282 101.37C190.805 87.8235 167.564 53.0032 167.564 36.8204C167.564 27.055 171.428 17.6896 178.306 10.7844C185.184 3.87928 194.512 0 204.239 0C213.966 0 223.295 3.87928 230.173 10.7844C237.051 17.6896 240.915 27.055 240.915 36.8204H240.901Z" fill="#E0313A"/>
<path d="M212.043 55.345C222.135 51.0131 226.818 39.2881 222.503 29.1566C218.188 19.0251 206.51 14.3236 196.418 18.6555C186.326 22.9874 181.643 34.7124 185.958 44.8439C190.273 54.9754 201.952 59.6769 212.043 55.345Z" fill="white"/>
</svg>
